HIERARCHY
ROOT RootJoint
{
    OFFSET   0.000000   0.000000   0.000000
    CHANNELS 6 Xposition Yposition Zposition Xrotation Yrotation Zrotation
    JOINT pelvis_lowerback
    {
        OFFSET   0.000000   0.093605   0.000000
        CHANNELS 3 Xrotation Yrotation Zrotation
        JOINT lowerback_torso
        {
            OFFSET   0.000000   0.100000   0.000000
            CHANNELS 3 Xrotation Yrotation Zrotation
            JOINT torso_head
            {
                OFFSET   0.000000   0.282350   0.000000
                CHANNELS 3 Xrotation Yrotation Zrotation
                End Site
                {
                    OFFSET   0.000000   0.192650   0.000000
                }
            }
            JOINT rTorso_Clavicle
            {
                OFFSET  -0.001000   0.157500   0.000000
                CHANNELS 3 Xrotation Yrotation Zrotation
                JOINT rShoulder
                {
                    OFFSET  -0.117647   0.000000   0.000000
                    CHANNELS 3 Xrotation Yrotation Zrotation
                    JOINT rElbow
                    {
                        OFFSET  -0.245000   0.000000   0.000000
                        CHANNELS 3 Xrotation Yrotation Zrotation
                        JOINT rWrist
                        {
                            OFFSET  -0.240000   0.000000   0.000000
                            CHANNELS 3 Xrotation Yrotation Zrotation
                            End Site
                            {
                                OFFSET  -0.116353  -0.002500   0.000000
                            }
                        }
                    }
                }
            }
            JOINT lTorso_Clavicle
            {
                OFFSET   0.001000   0.157500   0.000000
                CHANNELS 3 Xrotation Yrotation Zrotation
                JOINT lShoulder
                {
                    OFFSET   0.117647   0.000000   0.000000
                    CHANNELS 3 Xrotation Yrotation Zrotation
                    JOINT lElbow
                    {
                        OFFSET   0.245000   0.000000   0.000000
                        CHANNELS 3 Xrotation Yrotation Zrotation
                        JOINT lWrist
                        {
                            OFFSET   0.240000   0.000000   0.000000
                            CHANNELS 3 Xrotation Yrotation Zrotation
                            End Site
                            {
                                OFFSET   0.116353  -0.002500   0.000000
                            }
                        }
                    }
                }
            }
        }
    }
    JOINT rHip
    {
        OFFSET  -0.100000  -0.051395   0.000000
        CHANNELS 3 Xrotation Yrotation Zrotation
        JOINT rKnee
        {
            OFFSET   0.000000  -0.410000   0.000000
            CHANNELS 3 Xrotation Yrotation Zrotation
            JOINT rAnkle
            {
                OFFSET   0.000000  -0.390000   0.000000
                CHANNELS 3 Xrotation Yrotation Zrotation
                JOINT rToeJoint
                {
                    OFFSET   0.000000  -0.050000   0.130000
                    CHANNELS 3 Xrotation Yrotation Zrotation
                    End Site
                    {
                        OFFSET  -0.010000   0.002000   0.060000
                    }
                }
            }
        }
    }
    JOINT lHip
    {
        OFFSET   0.100000  -0.051395   0.000000
        CHANNELS 3 Xrotation Yrotation Zrotation
        JOINT lKnee
        {
            OFFSET   0.000000  -0.410000   0.000000
            CHANNELS 3 Xrotation Yrotation Zrotation
            JOINT lAnkle
            {
                OFFSET   0.000000  -0.390000   0.000000
                CHANNELS 3 Xrotation Yrotation Zrotation
                JOINT lToeJoint
                {
                    OFFSET   0.000000  -0.050000   0.130000
                    CHANNELS 3 Xrotation Yrotation Zrotation
                    End Site
                    {
                        OFFSET   0.010000   0.002000   0.060000
                    }
                }
            }
        }
    }
}
MOTION
Frames: 14
Frame Time:   0.008333
 -2.051154   0.822483   5.034467   0.002635   0.447261   3.413480   3.361214   8.613109  -3.771127   6.471731   5.468943   0.876569  -3.511302  -0.668850   2.346062  -1.941970   9.796230  14.261885  -5.518217  25.142910  30.881608  -0.004961  39.904626   0.001699  11.257352   3.268987  -2.833306   6.563677   3.231642 -15.256769  24.279278  -2.826901 -45.414990  -0.002400  -2.705768  -0.000375   8.938388  -3.171794  -9.160719  17.727919   3.941483 -14.543838  41.190878   0.020675   0.010796   2.361163   6.469955   1.818028 -27.331880   0.019703  -0.012304 -39.310104   8.038921   2.413545  47.770749   0.014247   0.000786 -13.573475  11.732827   4.152714  -0.506005  -0.001290   0.000638
 -2.046448   0.823300   5.044258  -0.025473   0.891583   3.712684   3.528309   8.422680  -4.098393   6.328557   5.248903   0.752576  -3.463174  -0.711177   2.350833  -1.861190   9.725971  14.349955  -5.074820  24.966995  31.155436  -0.009439  38.981112   0.004800  11.358729   3.405981  -3.003717   6.308152   2.892937 -15.251504  23.497351  -3.290605 -44.893755  -0.003941  -3.137761  -0.000523   9.077218  -3.053548  -9.090474  16.563923   3.778681 -14.685998  44.091890   0.019028   0.007314   3.316743   5.640592   1.594622 -24.832522   0.024688  -0.028404 -38.682813   8.153337   1.611352  48.085376   0.012296   0.000617 -14.007820  11.473143   4.481919  -0.285644  -0.001240   0.000119
 -2.041959   0.824480   5.053918  -0.126786   1.393097   3.986690   3.707743   8.185962  -4.387849   6.237420   4.989622   0.648831  -3.399091  -0.749431   2.350222  -1.735325   9.661652  14.462354  -4.623356  24.780591  31.438774  -0.013231  38.081275   0.007024  11.451594   3.337100  -3.009719   5.986805   2.509491 -15.232639  22.709940  -3.790549 -44.370106  -0.005496  -3.580523  -0.000556   9.187180  -3.100818  -8.914010  15.347978   3.607058 -14.725854  47.026660   0.016507   0.005825   4.208436   4.859464   1.399382 -22.613315   0.025346  -0.037840 -37.908189   8.210976   0.811782  48.252494   0.010307   0.000549 -14.462215  11.214825   4.808167  -0.098970  -0.001153  -0.000168
 -2.037590   0.825867   5.063552  -0.260431   1.902712   4.233384   3.861577   7.919862  -4.638821   6.158973   4.700378   0.570876  -3.333844  -0.783991   2.348305  -1.579985   9.586817  14.590501  -4.178873  24.592888  31.726920  -0.015577  37.231856   0.007883  11.538566   3.207502  -2.910112   5.648189   2.115396 -15.206413  21.951252  -4.291665 -43.868323  -0.006836  -4.010917  -0.000505   9.277389  -3.247348  -8.677426  14.125727   3.453102 -14.706732  49.794127   0.013879   0.005587   5.038445   4.129230   1.227310 -20.588360   0.024188  -0.042556 -37.053915   8.251219   0.053077  48.331208   0.008466   0.000499 -14.915002  10.969059   5.117497   0.066612  -0.001046  -0.000293
 -2.033282   0.827341   5.073194  -0.414516   2.396008   4.457090   3.984643   7.634523  -4.853068   6.079470   4.392887   0.515099  -3.272940  -0.816134   2.346165  -1.409794   9.501093  14.721806  -3.748692  24.406646  32.009240  -0.016528  36.433878   0.007627  11.621141   3.058288  -2.756429   5.312818   1.726959 -15.174671  21.233102  -4.779621 -43.394582  -0.007900  -4.421321  -0.000409   9.356601  -3.441408  -8.413949  12.911018   3.319717 -14.658393  52.367984   0.011411   0.005772   5.809551   3.446434   1.075112 -18.738656   0.022231  -0.044180 -36.148833   8.281006  -0.660404  48.357720   0.006846   0.000431 -15.356040  10.736855   5.407704   0.215744  -0.000933  -0.000335
 -2.029006   0.828820   5.082862  -0.584491   2.862646   4.661638   4.077165   7.337392  -5.033902   5.994684   4.075315   0.477690  -3.217652  -0.846406   2.344516  -1.234504   9.405781  14.847665  -3.336821  24.223376  32.278327  -0.016360  35.685548   0.006607  11.699832   2.900110  -2.580624   4.990168   1.351894 -15.137704  20.559464  -5.247589 -42.949428  -0.008687  -4.808790  -0.000301   9.429680  -3.654513  -8.139270  11.714061   3.205972 -14.596479  54.754524   0.009193   0.006015   6.525896   2.807922   0.940231 -17.048829   0.019959  -0.043803 -35.209642   8.300442  -1.331088  48.356196   0.005472   0.000353 -15.779777  10.517664   5.679265   0.350917  -0.000824  -0.000339
 -2.024749   0.830243   5.092565  -0.767140   3.298763   4.850081   4.140497   7.034392  -5.185372   5.903125   3.753533   0.455124  -3.168055  -0.875059   2.343706  -1.060135   9.302604  14.963267  -2.945238  24.044148  32.530179  -0.015389  34.984477   0.005138  11.774906   2.736682  -2.401481   4.684587   0.993917 -15.095590  19.930787  -5.692359 -42.531606  -0.009216  -5.172524  -0.000201   9.499222  -3.871306  -7.860563  10.542863   3.109907 -14.528973  56.966290   0.007243   0.006186   7.191597   2.210853   0.820550 -15.504982   0.017621  -0.042148 -34.248302   8.309224  -1.962358  48.342907   0.004342   0.000277 -16.183094  10.310800   5.933140   0.473891  -0.000725  -0.000328
 -2.020706   0.832101   5.101759  -0.975394   3.755145   5.011927   4.309191   6.700358  -5.266720   5.793588   3.515671   0.377868  -3.024451  -0.889332   2.304476  -0.933155   9.223589  15.009633  -2.346075  23.889372  32.834174  -0.018745  33.887710   0.007134  11.810926   2.832162  -2.472733   4.442028   0.629860 -14.993550  19.086206  -6.414665 -41.990435  -0.011386  -5.703693  -0.000042   9.571615  -3.803884  -7.727253   9.112095   2.905286 -14.438494  59.462318   0.002945   0.004580   6.705103   1.507189   0.733288 -14.234795   0.014558  -0.041723 -33.199059   8.181008  -2.611004  48.112145   0.002963   0.000166 -16.419703  10.019877   6.144773   0.594916  -0.000628  -0.000496
 -2.016828   0.834234   5.110788  -1.210452   4.216692   5.139379   4.493088   6.343067  -5.320465   5.717832   3.250725   0.325421  -2.876658  -0.896888   2.262362  -0.769624   9.143751  15.072196  -1.753104  23.723969  33.139327  -0.021431  32.835124   0.008282  11.844867   2.788838  -2.409099   4.145329   0.228990 -14.872860  18.253061  -7.149739 -41.453752  -0.013389  -6.233727   0.000336   9.574574  -3.868422  -7.497391   7.629005   2.708477 -14.304358  61.840005  -0.000754   0.003882   6.239042   0.850710   0.646422 -13.161902   0.011684  -0.039492 -32.084089   8.005834  -3.213815  47.778628   0.001667   0.000005 -16.672129   9.739191   6.353317   0.712295  -0.000547  -0.000597
 -2.013040   0.836492   5.119758  -1.458942   4.664842   5.238926   4.668837   5.961503  -5.351583   5.659221   2.955363   0.300130  -2.733728  -0.902777   2.221739  -0.586645   9.053925  15.145647  -1.180999  23.557714  33.441602  -0.022853  31.844447   0.008203  11.876714   2.696908  -2.265828   3.835162  -0.181243 -14.740456  17.458463  -7.867086 -40.938543  -0.014960  -6.742750   0.000889   9.569454  -4.013181  -7.207449   6.137366   2.535244 -14.152943  64.047408  -0.003447   0.003710   5.801761   0.239398   0.559725 -12.189699   0.009265  -0.036593 -30.933137   7.811156  -3.763602  47.387954   0.000536  -0.000207 -16.931716   9.473704   6.552673   0.816530  -0.000472  -0.000626
 -2.009298   0.838767   5.128719  -1.714710   5.090720   5.315501   4.828161   5.561986  -5.361040   5.608573   2.637553   0.298144  -2.598587  -0.908498   2.183525  -0.393667   8.952403  15.220503  -0.633335  23.391439  33.733097  -0.023104  30.914484   0.007187  11.906677   2.583226  -2.084900   3.528901  -0.586109 -14.598845  16.710969  -8.555039 -40.448624  -0.016055  -7.224805   0.001498   9.562580  -4.192466  -6.886117   4.660316   2.386200 -14.000999  66.086528  -0.005230   0.003680   5.391221  -0.330133   0.473842 -11.306025   0.007292  -0.033440 -29.765216   7.605570  -4.262961  46.970904  -0.000395  -0.000428 -17.190444   9.223606   6.741293   0.909746  -0.000405  -0.000616
 -2.005581   0.840984   5.137702  -1.973562   5.491143   5.372800   4.967388   5.152027  -5.350842   5.560814   2.305259   0.315326  -2.472183  -0.914409   2.148177  -0.196659   8.839605  15.290403  -0.111266  23.225352  34.008583  -0.022444  30.042015   0.005594  11.934805   2.453889  -1.890217   3.234460  -0.977932 -14.450014  16.012575  -9.208636 -39.984538  -0.016700  -7.678087   0.002068   9.557144  -4.382539  -6.548233   3.213942   2.259116 -13.857067  67.969905  -0.006284   0.003614   5.005815  -0.860913   0.389399 -10.502238   0.005707  -0.030270 -28.593792   7.392908  -4.716019  46.548438  -0.001121  -0.000622 -17.443147   8.988277   6.919100   0.993702  -0.000347  -0.000586
 -2.001880   0.843089   5.146727  -2.231550   5.865859   5.413734   5.084812   4.738441  -5.323854   5.512664   1.965262   0.347677  -2.354715  -0.920562   2.115866   0.000376   8.717194  15.352060   0.384921  23.060102  34.265600  -0.021152  29.223731   0.003732  11.961190   2.311123  -1.695098   2.955361  -1.352717 -14.296155  15.362396  -9.826203 -39.545972  -0.016944  -8.102654   0.002545   9.554522  -4.571697  -6.202128   1.809803   2.151189 -13.724983  69.711289  -0.006787   0.003458   4.644133  -1.355681   0.306906  -9.770692   0.004449  -0.027213 -27.429137   7.175791  -5.126829  46.134478  -0.001656  -0.000774 -17.686588   8.766966   7.086428   1.069711  -0.000297  -0.000547
 -1.998415   0.845713   5.155419  -2.494379   6.268218   5.383859   5.304361   4.383974  -5.221874   5.450554   1.687402   0.377802  -2.177900  -0.897359   2.038432   0.143011   8.603865  15.357989   1.009644  22.805084  34.534114  -0.023037  28.063424   0.004210  11.936995   2.439026  -1.604787   2.687298  -1.721144 -14.134700  14.518151 -10.631530 -39.004609  -0.018563  -8.642496   0.002650   9.574476  -4.533799  -5.979409   0.296854   1.947047 -13.468830  71.113074  -0.008100   0.003627   3.786650  -1.878351   0.360560  -9.137835   0.001958  -0.024525 -26.210446   6.817559  -5.481676  45.525385  -0.002186  -0.000786 -17.786218   8.381940   7.086084   1.303399  -0.000033  -0.001135
